<svg width="2278" height="2038" viewBox="0 0 2278 2038" fill="none" xmlns="http://www.w3.org/2000/svg">
<path d="M0 1013.33C10.7576 1017.79 11.7382 1019.49 16.6964 1030.19C37.8623 1058.61 63.4446 1083.46 92.4693 1103.8C180.109 1067.54 292.27 1122.36 376.138 1147.19C422.597 1160.94 530.183 1189.35 578.388 1192.16C584.367 1194.27 592.219 1192.65 595.326 1195.66L592.337 1199.23C548.488 1194.23 504.3 1198.71 460.609 1196.86C325.371 1191.13 207.52 1180.74 91.5747 1107.65C61.2717 1127.29 51.5308 1152.68 49.5404 1188.23L46.8273 1189.14C48.675 1149.07 54.1046 1129.29 87.9687 1105.64C53.5145 1079.31 38.098 1062.43 10.1193 1029.38C6.3465 1022.74 4.09969 1022.78 0 1013.33Z" fill="#E3665E"/>
<path d="M127.78 1098.37C224.334 1091.84 294.648 1127.68 384.37 1154.88C440.403 1171.87 489.702 1181.85 546.372 1193.49L512.217 1194.18C399.184 1194.12 272.771 1185.83 166.825 1143.97C141.311 1133.89 118.963 1120.82 95.2478 1107.1C107.595 1103.05 115.067 1100.98 127.78 1098.37Z" fill="#FAF8F8"/>
<path d="M518.287 992.807L525.242 994.962C531.031 1010.26 612.306 1050.86 629.875 1059.38C813.611 1148.5 1014.95 1089.91 1208.23 1107.16C1241.42 1110.12 1378.8 1148.73 1400.7 1168.95C1422.81 1179.8 1445.02 1190.47 1467.3 1200.97C1516.44 1221.15 1562.06 1257.7 1602.92 1291.08C1610.89 1297.58 1634.21 1319.32 1640.1 1323.25L1642.3 1327.87C1646.7 1333.71 1651.18 1339.48 1655.75 1345.18C1663.25 1352.53 1666.59 1360.18 1670 1369.87L1678.79 1381.56L1676.19 1384.96L1674.49 1384.17C1668.04 1379.3 1659.32 1373.67 1652.49 1368.98L1628.49 1351C1629.88 1357.17 1630.21 1354.3 1627.76 1359.91L1639.39 1368.14L1642.64 1370.79L1642.44 1376.9C1626.25 1367.96 1605.55 1361.97 1587.37 1354.23C1473.5 1305.77 1352.7 1270.4 1228.96 1260.72C1204.04 1258.77 1166.43 1270.18 1141.79 1275.59C994.018 1315.65 897.062 1438.24 778.964 1533.98C702.293 1595.25 621.907 1651.75 538.269 1703.11L530.93 1703.4C615.282 1647.32 682.617 1605.87 764.352 1540.69C804.472 1508.47 843.471 1474.87 881.284 1439.98C981.645 1348.38 1055.24 1281.49 1195.6 1260.81C1152.36 1253.56 1114.66 1255.91 1071.01 1258.54C868.675 1270.71 690.386 1339.09 526.092 1455.97C365.337 1572.29 233.894 1724.46 142.185 1900.4C116.765 1949.38 102.623 1992.35 80.7207 2037.23L78.436 2037.12C79.0003 2033.67 79.8536 2030.24 80.9891 2026.92C94.8795 1986.96 122.32 1929.34 141.865 1892.25C260.758 1666.69 455.04 1469.16 684.755 1356.45C808.873 1295.23 944.252 1260.16 1082.49 1253.44C1139.98 1251.14 1196.83 1255.17 1254.26 1253.78C1309.08 1252.44 1380.3 1256.63 1432.31 1274.41L1439.55 1270.51C1329.45 1225.92 1199.08 1188.02 1079.3 1187.27C1055.81 1187.99 1032.04 1194.73 1009.08 1199.12C888.024 1222.3 763.503 1221.38 641.499 1206.52C626.248 1204.67 607.288 1203.57 592.337 1200.22L595.326 1196.66C592.219 1193.65 584.367 1195.27 578.388 1193.16C584.941 1193.27 590.958 1192.85 597.474 1192.55C658.099 1189.85 718.723 1189.55 779.291 1185.06C795.194 1183.89 811.488 1183.06 827.424 1183.11L827.921 1178.68C834.412 1178.13 841.641 1176.57 848.113 1175.38C884.014 1174.57 916.074 1174.11 951.961 1171.87C1001.52 1168.78 1052.04 1167.44 1101.7 1163.99C1113.69 1162.06 1132.42 1167.06 1143.51 1165.11C1178.6 1158.91 1207.73 1153.24 1243.71 1153C1255.88 1150.95 1278.34 1150.23 1290.32 1153.06C1326.58 1152.23 1362.57 1162.76 1397.54 1171.31C1092.64 1011.94 841.988 1234.8 513.803 995.094L518.287 992.807Z" fill="#E47A6E"/>
<path d="M1163.8 1165.16C1221.95 1157.64 1269.97 1148.9 1329.33 1159.89C1352.98 1164.27 1375.35 1171.25 1398.34 1175.57L1400.7 1168.95C1422.81 1179.8 1445.02 1190.47 1467.3 1200.97C1516.44 1221.15 1562.06 1257.7 1602.92 1291.08C1610.89 1297.58 1634.21 1319.32 1640.1 1323.25L1642.3 1327.87C1646.7 1333.71 1651.18 1339.48 1655.75 1345.18C1663.25 1352.53 1666.59 1360.18 1670 1369.87L1678.79 1381.56L1676.19 1384.96L1674.49 1384.17C1668.04 1379.3 1659.32 1373.67 1652.49 1368.98L1628.49 1351C1629.88 1357.17 1630.21 1354.3 1627.76 1359.91L1607.91 1350.27L1604.56 1344.13C1607.14 1341.74 1607.96 1340.23 1609.54 1337.1C1448.83 1235.38 1355.89 1188.87 1163.8 1165.16Z" fill="#FAF8F8"/>
<path d="M1467.3 1200.97C1516.44 1221.15 1562.06 1257.7 1602.92 1291.08C1610.89 1297.58 1634.21 1319.32 1640.1 1323.25L1642.3 1327.87C1646.7 1333.71 1651.18 1339.48 1655.75 1345.18C1663.25 1352.53 1666.59 1360.18 1670 1369.87C1664.7 1365.71 1658.92 1359.5 1653.83 1354.7C1616.01 1319.02 1574.12 1285.83 1532.99 1254.01C1511.31 1237.24 1485.8 1221.49 1463.09 1205.97L1467.3 1200.97Z" fill="#E47A6E"/>
<path d="M1655.75 1345.18L1652.78 1346.12C1604.85 1307.47 1558.55 1266.52 1507.89 1231.3C1503.22 1228.06 1496.77 1225.35 1494.79 1220.48C1509.42 1220.18 1584.51 1281.52 1600.08 1293.74C1612.86 1303.76 1627.07 1320.18 1642.3 1327.87C1646.7 1333.71 1651.18 1339.48 1655.75 1345.18Z" fill="#F7E9ED"/>
<path d="M1400.7 1168.95C1422.81 1179.8 1445.02 1190.47 1467.3 1200.97L1463.09 1205.97C1440.1 1191.82 1423.38 1184.87 1398.34 1175.57L1400.7 1168.95Z" fill="#E14523"/>
<path d="M1609.54 1337.1C1616.1 1341.58 1622.57 1345.71 1628.49 1351C1629.88 1357.17 1630.21 1354.3 1627.76 1359.91L1607.91 1350.27L1604.56 1344.13C1607.14 1341.74 1607.96 1340.23 1609.54 1337.1Z" fill="#E3665E"/>
<path d="M994.861 1183.55C1012.92 1183.69 1035.06 1183.31 1052.73 1185.43C942.993 1213.83 804.04 1218.14 691.657 1207.03C669.781 1204.87 634.126 1204.16 613.514 1199.18C653.631 1194.1 684.461 1194.03 724.529 1192.69C768.074 1191.22 817.122 1186.5 860.299 1187.38C906.138 1187.85 949.2 1185.03 994.861 1183.55Z" fill="#FAF8F8"/>
<path d="M1275.71 1259.25C1394.87 1252.57 1504.58 1297.41 1607.91 1350.27L1627.76 1359.91L1639.39 1368.14C1622.38 1367.24 1564.4 1340.67 1543.14 1332.26C1518.69 1322.44 1493.99 1313.33 1469.01 1304.96C1428.2 1291.25 1386.95 1281.97 1345.02 1272.79C1326.36 1268.71 1291.32 1265.6 1275.71 1259.25Z" fill="#FAF8F8"/>
<path d="M848.113 1175.38C884.014 1174.57 916.074 1174.11 951.961 1171.87L945.818 1176.18L946.06 1178.61C953.281 1180.17 962.383 1178.97 969.967 1178.45C985.333 1178.72 1013.93 1178.19 1027.88 1180.38C1023.03 1180.78 997.464 1182.07 994.861 1183.55C949.2 1185.03 906.138 1187.85 860.299 1187.38L864.939 1185.28C858.953 1183.22 835.05 1183.23 827.424 1183.11L827.921 1178.68C834.412 1178.13 841.641 1176.57 848.113 1175.38Z" fill="#EE8D8D"/>
<path d="M969.967 1178.45C974.34 1173.9 981.118 1173.94 987.097 1174.4C1001.3 1175.5 1100.25 1166.43 1108.64 1169.83L1109.77 1171.99C1092.12 1184.49 1043.4 1178.95 1027.88 1180.38C1013.93 1178.19 985.333 1178.72 969.967 1178.45Z" fill="#F7E9ED"/>
<path d="M1439.55 1270.51C1453.95 1275.28 1457.1 1276.72 1470.12 1284.12C1456.74 1281.2 1445.42 1278.13 1432.31 1274.41L1439.55 1270.51Z" fill="#FCE2E0"/>
<path d="M1243.71 1153C1255.88 1150.95 1278.34 1150.23 1290.32 1153.06C1280.84 1154.24 1253.38 1153.47 1243.71 1153Z" fill="#FABBB6"/>
<path d="M1141.67 1170.72C1144.69 1170.27 1147.72 1169.99 1150.77 1169.87C1171.33 1169.06 1219.79 1176.37 1240.73 1180.59C1348.99 1201.45 1452.46 1242.15 1545.92 1300.63C1562.27 1310.7 1587.27 1326.11 1600.98 1338.91C1587.18 1333.86 1576.13 1328.12 1563.09 1321.59C1548.4 1315.1 1533.14 1308.54 1518.79 1301.63C1418.91 1253.51 1313.53 1216.51 1204.59 1195.17C1165.39 1187.49 1125.28 1186.77 1085.82 1180.33C1102.46 1179.08 1124.72 1173.93 1141.67 1170.72Z" fill="#FAF8F8"/>
<path d="M1656.99 1274.92C1610.46 1043.9 1568.17 803.497 1585.25 566.438C1595.49 424.496 1627.02 311.911 1587.35 168.686C1574.19 119.366 1549.9 73.7164 1516.35 35.2369C1511.38 29.61 1482.98 3.3957 1482.1 1.11469L1483.94 0C1544.26 38.808 1585.46 133.122 1600.13 201.537C1629.62 338.994 1595.21 452.563 1588.38 587.5C1580.28 747.272 1596.21 908.017 1621.55 1065.85C1633.32 1144.03 1649.29 1221.51 1669.36 1297.98L1675.68 1295.52C1672.2 1276.08 1669.47 1238.41 1666.51 1216.29C1637.02 997.382 1631.44 775.917 1649.89 555.805C1652.64 524.34 1653.72 482.864 1659.56 452.881L1663.51 451.79C1652.09 566.622 1641.61 706.583 1643.01 822.109C1644.59 952.641 1655.6 1094.1 1671.93 1223.38C1673.89 1238.91 1686 1342.47 1690.11 1352.42L1692 1353.17C1694 1347.37 1693.36 1334.83 1694.26 1326.97C1696.01 1311.83 1698.37 1296.77 1701.33 1281.82C1718.34 1196.92 1778.74 1128.94 1855.42 1091.58C1860.33 1089.14 1865.4 1087.07 1870.61 1085.39C1878.82 1082.42 1880.14 1081.68 1887.27 1076.63C1891.59 1076.44 1893.39 1075.93 1897.11 1078.11C1876.69 1088.34 1858.76 1093.86 1838.08 1105.26C1779 1138.19 1734.22 1191.82 1712.35 1255.81C1707.5 1270.33 1701.24 1295.19 1702.63 1310.51C1705.66 1312.03 1704.25 1312.07 1706.76 1311.27C1704.96 1319.49 1703.91 1322.09 1706.63 1330.33C1704.84 1338.23 1702.75 1346.6 1701.53 1354.56C1698.64 1371.11 1703.37 1396.81 1698.68 1402.43L1694.02 1402.68C1692.14 1397.58 1688.68 1390.67 1686.33 1385.58C1682.92 1382.65 1683.18 1383.24 1678.79 1381.56L1670 1369.87C1666.59 1360.18 1663.25 1352.53 1655.75 1345.18C1651.18 1339.48 1646.7 1333.71 1642.3 1327.87L1640.1 1323.25C1632.12 1306.78 1608.79 1275.43 1596.92 1259.1C1531.01 1168.43 1451.08 1073.27 1357.43 1011.21C1275.77 957.084 1176.91 934.262 1095.35 1000.54C1061.86 1027.77 1020.49 1065.23 977.634 1072.72C775.645 1108.02 725.22 706.193 668.472 577.658C643.863 521.923 605.956 467.959 556.046 435.355C512.947 407.202 456.673 393.611 406.676 404.56L407.05 398.825C477.088 393.281 524.8 403.113 582.137 450.019C621.36 482.106 652.331 531.586 673.185 578.727C728.95 704.781 775.628 1079.63 960.63 1070.9C1017.69 1068.2 1059.91 1021.79 1102.51 990.555C1208.66 912.729 1330.77 977.679 1417.63 1051.86C1502.07 1123.96 1573.81 1216.17 1636.38 1307.88C1650.61 1328.73 1668.64 1351.05 1681.47 1372.2C1664.58 1320.26 1646.77 1286.85 1623.67 1237.92C1555.18 1091.21 1466.67 954.712 1360.68 832.316C1325.88 792.087 1294.21 760.61 1258.42 722.645L1261.62 720.405C1403.58 866.847 1524.99 1020.84 1613.04 1206.11C1622.48 1225.98 1633.65 1254.96 1645.04 1272.6L1646.83 1272.43C1646.93 1270.99 1647.2 1268.76 1646.65 1267.33C1598.6 1143.27 1558.28 1015.07 1534.43 884.116C1517.04 788.534 1513.29 693.069 1481.56 600.789C1455.96 526.055 1411.2 452.645 1323.92 447.106C1290.07 444.958 1258.93 452.342 1225.56 456.07C1135.47 469.822 1056.34 414.135 1000.72 348.825C931.74 267.819 885.065 167.229 845.725 69.0872C839.403 53.3146 826.23 22.5004 823.814 6.63657L824.654 3.94445C830.918 13.4228 833.655 27.0762 838.05 38.3109C847.723 62.8412 857.629 87.2802 867.768 111.621C936.789 275.382 1057.3 495.283 1262.17 446.871C1337.42 429.087 1406.82 455.824 1448.21 520.779C1518.59 630.612 1517.93 783.066 1543.5 909.579C1561.01 995.158 1584.19 1079.48 1612.85 1162C1622.83 1191.64 1641.15 1250.15 1656.99 1274.92Z" fill="#E3665E"/>
<path d="M1686.33 1385.58C1691.43 1381.33 1688.67 1382.17 1694.53 1381.97C1701.22 1388.08 1701.69 1397.3 1694.02 1402.68C1692.14 1397.58 1688.68 1390.67 1686.33 1385.58Z" fill="#9A3430"/>
<path d="M1675.68 1295.52C1677.38 1302.48 1679 1304.3 1677.22 1310.59L1674.54 1310.91C1670.82 1307.03 1670.6 1303.29 1669.36 1297.98L1675.68 1295.52Z" fill="#F7E9ED"/>
<path d="M2208.19 676.623L2213.07 677.07C2270.4 799.004 2307.16 928.717 2248.91 1059.02C2200.58 1167.08 2072.67 1234.41 1958.92 1246.75C1957.03 1245.4 1957.17 1244.99 1955.81 1242.84C2006.71 1237.59 2045.92 1225.24 2091.72 1203.84C2202.01 1152.33 2268.01 1062.11 2272.39 939.487C2276.02 838.078 2251.32 766.714 2208.19 676.623Z" fill="#E3665E"/>
<path d="M1741.95 9.34277C1742.56 14.2402 1743.13 19.1428 1743.67 24.0489C1737.73 34.4115 1729.39 74.5148 1726.22 87.671C1696.75 209.92 1679.32 327.55 1663.51 451.79L1659.56 452.881C1660.3 433.683 1667.4 388.039 1670.1 367.631C1686.86 246.872 1710.84 127.227 1741.95 9.34277Z" fill="#E3665E"/>
<path d="M1694.02 1402.68L1698.68 1402.43C1703.37 1396.81 1698.64 1371.11 1701.53 1354.56C1703.29 1364.47 1707.98 1370.97 1709.84 1380.03C1711.17 1386.5 1700.48 1397.85 1706.83 1403.66L1717.4 1406.08L1717.6 1408.08C1699.56 1419.31 1665.49 1402.47 1644.23 1400.34C1652.09 1399.83 1659.93 1399.26 1667.81 1399.05C1658.42 1389.91 1652.95 1384.5 1642.44 1376.9L1642.64 1370.79L1639.39 1368.14L1627.76 1359.91C1630.21 1354.3 1629.88 1357.17 1628.49 1351L1652.49 1368.98C1659.32 1373.67 1668.04 1379.3 1674.49 1384.17L1676.19 1384.96L1678.79 1381.56C1683.18 1383.24 1682.92 1382.65 1686.33 1385.58C1688.68 1390.67 1692.14 1397.58 1694.02 1402.68Z" fill="#E47A6E"/>
<path d="M1652.49 1368.98C1659.32 1373.67 1668.04 1379.3 1674.49 1384.17L1672.22 1390.93L1668.16 1391.46C1658.63 1387.47 1652.35 1379.32 1652.49 1368.98Z" fill="#F17F80"/>
<path d="M1706.76 1312.27C1731.64 1257.23 1783.58 1253.8 1836.95 1248.63L1852.6 1249.88C1850.02 1252.44 1847.32 1252.31 1843.14 1253.35C1782.29 1256.53 1722.09 1262.72 1706.63 1331.33C1703.91 1323.09 1704.96 1320.49 1706.76 1312.27Z" fill="#E47A6E"/>
<path d="M1836.95 1247.63C1861.72 1242.75 1927.49 1243.45 1955.81 1242.84C1957.17 1244.99 1957.03 1245.4 1958.92 1246.75C1938.52 1251.51 1865.83 1252.29 1843.14 1252.35C1847.32 1251.31 1850.02 1251.44 1852.6 1248.88L1836.95 1247.63Z" fill="#F17F80"/>
</svg>
